<svg xmlns="http://www.w3.org/2000/svg" viewBox="0 0 48 9.67725"><defs><style>.cls-1{fill:#6366f1;}</style></defs><title>Site_1</title><g id="Layer_2" data-name="Layer 2"><g id="Layer_1-2" data-name="Layer 1"><polygon class="cls-1" points="21.787 0.001 18.888 9.669 21.534 9.669 22.79 4.971 24.045 9.669 26.691 9.669 23.792 0.001 21.787 0.001"/><path class="cls-1" d="M5.12613,4.67709A2.10838,2.10838,0,0,0,5.495,4.0957,2.54821,2.54821,0,0,0,5.6965,3.0812V2.63547A2.82705,2.82705,0,0,0,5.37262,1.2602,2.27213,2.27213,0,0,0,4.3637.30635,3.29257,3.29257,0,0,0,2.8971.00146H0V2.41261H2.7994a.60584.60584,0,0,1,.35892.07513.343.343,0,0,1,.04739.21636v.42276a.5039.5039,0,0,1-.065.30715.43352.43352,0,0,1-.2664.05907H0V5.89255H2.87427a.63261.63261,0,0,1,.29175.05363.19583.19583,0,0,1,.08973.09822.84393.84393,0,0,1,.05867.345v.55444c0,.16194-.0458.20109-.06756.21981A.86681.86681,0,0,1,2.76,7.2588H0V9.66929H3.02227A3.147,3.147,0,0,0,4.455,9.3559a2.35378,2.35378,0,0,0,1.01-.95743,2.78715,2.78715,0,0,0,.3402-1.39173V6.44686a2.67064,2.67064,0,0,0-.226-1.10477A2.261,2.261,0,0,0,5.12613,4.67709Z"/><rect class="cls-1" x="9.78862" y="0.00146" width="5.34953" height="2.42774"/><polygon class="cls-1" points="12.216 6.075 14.681 6.075 14.681 3.653 9.789 3.653 9.789 9.669 15.138 9.669 15.138 7.241 12.216 7.241 12.216 6.075"/><path class="cls-1" d="M34.22067,3.65436H29.89454l-.01739,2.42216h4.34074a.58318.58318,0,0,1,0,1.16635h-3.756V9.67062h3.75882a3.00813,3.00813,0,1,0,0-6.01626Z"/><path class="cls-1" d="M30.55677,3.0082l.389.001L32.305,3.011a.58383.58383,0,0,1,.58311-.58311h3.756V0H32.88535a3.01168,3.01168,0,0,0-3.0082,3.0082Z"/><path class="cls-1" d="M44.99194,3.661H40.65711l-.01739,2.42217h4.34943a.58318.58318,0,0,1,0,1.16635h-3.756V9.67725h3.75882a3.00813,3.00813,0,0,0,0-6.01626Z"/><path class="cls-1" d="M41.71694,3.01585v.00177h1.35922a.58382.58382,0,0,1,.58311-.58311h3.756V.00664H43.65648a3.01155,3.01155,0,0,0-3.00806,3.00819H41.328Z"/></g></g></svg>